<?xml version="1.0" encoding="UTF-8"?>
<svg id="_레이어_2" data-name="레이어 2" xmlns="http://www.w3.org/2000/svg" viewBox="0 0 709.78 709.78">
  <defs>
    <style>
      .cls-1 {
        fill: #fff;
      }
    </style>
  </defs>
  <g id="_레이어_1" data-name="레이어 1">
    <path class="cls-1" d="M594.82,0H114.96C51.47,0,0,51.47,0,114.96v479.86c0,20.68,5.46,40.08,15.02,56.85,19.78,34.71,57.13,58.11,99.94,58.11h479.86c63.49,0,114.96-51.47,114.96-114.96V114.96c0-63.49-51.47-114.96-114.96-114.96ZM40,245.03c60.55,1.29,119.28,13.82,174.75,37.28,48.4,20.48,92.6,48.5,131.7,83.48-42.02,5.55-82.92,16.69-122.2,33.3-56.71,23.99-107.64,58.32-151.38,102.05-11.63,11.63-22.59,23.77-32.87,36.4V245.03ZM114.96,669.78c-37.9,0-69.32-28.28-74.28-64.84,17.19-27.19,37.41-52.44,60.48-75.51,40.07-40.07,86.73-71.53,138.67-93.5,45.7-19.34,93.83-30.57,143.41-33.5,35.62,39.48,64.11,84.19,84.85,133.23,18.18,42.96,29.79,87.9,34.69,134.12H114.96ZM669.78,594.82c0,41.33-33.63,74.96-74.96,74.96h-51.82c-5.06-51.61-17.8-101.78-38.07-149.71-17.92-42.37-41.18-81.76-69.42-117.67,49.77,2.89,98.07,14.13,143.93,33.53,32.26,13.64,62.48,30.95,90.34,51.7v107.19ZM595.02,399.09c-58.73-24.84-121.1-37.44-185.38-37.44-3.24,0-6.47.03-9.69.11-1.84-1.92-3.71-3.82-5.6-5.71-47.39-47.38-102.57-84.59-164.02-110.58-60.42-25.55-124.4-39.15-190.33-40.45v-90.06c0-41.33,33.63-74.96,74.96-74.96h479.86c41.33,0,74.96,33.63,74.96,74.96v323.91c-23.59-15.4-48.56-28.69-74.76-39.78Z"/>
    <circle class="cls-1" cx="502.52" cy="212.37" r="87.64"/>
  </g>
</svg>